<?xml version="1.0" encoding="UTF-8"?>
<!DOCTYPE svg PUBLIC "-//W3C//DTD SVG 1.1//EN" "http://www.w3.org/Graphics/SVG/1.1/DTD/svg11.dtd">
<!-- Creator: CorelDRAW -->
<svg xmlns="http://www.w3.org/2000/svg" xml:space="preserve" width="172.72mm" height="172.72mm" version="1.1" style="shape-rendering:geometricPrecision; text-rendering:geometricPrecision; image-rendering:optimizeQuality; fill-rule:evenodd; clip-rule:evenodd"
viewBox="0 0 17272 17272"
 xmlns:xlink="http://www.w3.org/1999/xlink"
 xmlns:xodm="http://www.corel.com/coreldraw/odm/2003">
 <defs>
  <style type="text/css">
   <![CDATA[
    .fil2 {fill:#201E1E}
    .fil0 {fill:black}
    .fil3 {fill:#FEFEFE;fill-rule:nonzero}
    .fil1 {fill:#373435;fill-rule:nonzero}
   ]]>
  </style>
 </defs>
 <g id="Camada_x0020_1">
  <metadata id="CorelCorpID_0Corel-Layer"/>
  <g id="_1821488839712">
   <g>
    <path class="fil0" d="M2461.61 3344.22l2165.01 -188.35c327.01,-28.44 592.11,213.59 592.11,540.6l2.32 -0.2 0 1006.72c0,221.93 -121.64,426.01 -301.88,543.8 122.63,98.22 199.93,250.31 199.93,427.2l0 955.75c0,328.29 -266.14,617.59 -594.43,646.14l-208.4 18.13 0 1520.96c0,328.29 -266.14,617.59 -594.43,646.14 -17.64,1.53 -35.08,2.24 -52.32,2.23l-1260.24 109.64c-327.01,28.44 -592.11,-213.59 -592.11,-540.6l-2.32 0.2 0 -5039.99c0,-328.29 266.14,-617.59 594.43,-646.14 17.64,-1.53 35.08,-2.24 52.33,-2.23zm-52.33 596.66l2217.34 -192.9 0 1006.72 -904.78 78.71 0 962.13 802.83 -69.84 0 955.75 -802.83 69.84 0 2115.39 -1312.56 114.19 0 -5039.99z"/>
   </g>
   <g>
    <path id="_1" class="fil0" d="M7670.25 3425.13l745.59 4947.3c47.44,320.31 -177.11,641.34 -501.55,717.01 -28.87,6.73 -57.56,11.26 -85.91,13.76l0 0.68 -1339.11 116.49c-112.74,9.8 -218.16,-12.42 -307.97,-59.12 -90.12,62.33 -195.43,102.55 -306.9,112.13l0 0.48 -1356.1 117.97c-328.29,28.55 -594.43,-214.43 -594.43,-542.72 0,-43.47 4.71,-86.24 13.57,-127.83l658.18 -5047.22c38.96,-302.07 294.06,-541.81 587.46,-566.97l0 -1.94 1895.57 -164.9c308.69,-26.85 562.4,186.39 591.6,484.88zm-591.6 109.55l749.73 4974.77 -1339.11 116.49 -71.15 -898.59 -472.57 41.11 -71.15 910.97 -1356.1 117.97 664.78 -5097.82 1895.57 -164.9zm-695.57 3303.69c-62.66,-565.88 -128.5,-1267.41 -198.59,-2105.56 -129.56,979.76 -211.33,1694.14 -246.37,2144.26l444.96 -38.7z"/>
   </g>
   <polygon id="_2" class="fil1" points="2409.28,3940.88 4626.62,3747.98 4626.62,4754.7 3721.84,4833.41 3721.84,5795.54 4524.67,5725.7 4524.67,6681.45 3721.84,6751.29 3721.84,8866.68 2409.28,8980.87 "/>
   <path id="_3" class="fil1" d="M7078.65 3534.68l749.73 4974.77 -1339.11 116.49 -71.15 -898.59 -472.57 41.11 -71.15 910.97 -1356.1 117.97 664.78 -5097.82 1895.57 -164.9zm-695.57 3303.69c-62.66,-565.88 -128.5,-1267.41 -198.59,-2105.56 -129.56,979.76 -211.33,1694.14 -246.37,2144.26l444.96 -38.7z"/>
   <g>
    <path class="fil0" d="M6011.14 9231.43l0 5039.99c0,328.29 -266.14,617.59 -594.43,646.14l-1312.57 114.18c-66.87,5.82 -131.15,0.36 -191.14,-14.78 -59.98,25.59 -124.28,42.22 -191.16,48.04l-1312.56 114.18c-328.29,28.55 -594.43,-214.43 -594.43,-542.72l0 -5039.99c0,-328.29 266.14,-617.59 594.43,-646.14l1312.56 -114.18c66.87,-5.82 131.15,-0.36 191.14,14.78 59.98,-25.59 124.28,-42.22 191.16,-48.04l1312.57 -114.18c328.29,-28.55 594.43,214.43 594.43,542.72zm-594.43 51.71l0 5039.99 -1312.57 114.18 0 -2115.39 -382.3 33.26 0 2115.39 -1312.56 114.18 0 -5039.99 1312.56 -114.18 0 1803.18 382.3 -33.26 0 -1803.18 1312.57 -114.18z"/>
   </g>
   <g>
    <path id="_1_0" class="fil0" d="M5946.62 8642.61l2185.48 -190.12c328.29,-28.55 594.43,214.43 594.43,542.72l0 1006.72c0,211.01 -109.96,405.89 -275.69,525.8 133.27,97.41 218.35,255.72 218.35,441.32l0 955.75c0,229.66 -130.26,440.23 -320.93,555.79 267.28,34.92 467.47,255.42 467.47,540.13l0 1006.72c0,328.29 -266.14,617.59 -594.43,646.14l-2274.68 197.88c-328.29,28.55 -594.43,-214.43 -594.43,-542.72l0 -5039.99c0,-328.29 266.14,-617.59 594.43,-646.14zm0 594.43l2185.48 -190.12 0 1006.72 -872.92 75.94 0 962.13 815.58 -70.95 0 955.75 -815.58 70.95 0 1108.67 962.12 -83.7 0 1006.72 -2274.68 197.88 0 -5039.99z"/>
   </g>
   <g>
    <path id="_2_1" class="fil0" d="M11446.53 8700.51l745.59 4947.3c47.44,320.31 -177.11,641.34 -501.55,717.01 -28.87,6.73 -57.56,11.26 -85.91,13.76l0 0.68 -1339.11 116.49c-112.74,9.8 -218.16,-12.42 -307.97,-59.12 -90.12,62.33 -195.43,102.55 -306.9,112.13l0 0.48 -1356.1 117.97c-328.29,28.55 -594.43,-214.43 -594.43,-542.72 0,-43.47 4.71,-86.24 13.57,-127.83l658.18 -5047.22c38.96,-302.07 294.06,-541.81 587.46,-566.97l0 -1.94 1895.57 -164.9c308.69,-26.85 562.4,186.39 591.6,484.88zm-591.6 109.55l749.73 4974.77 -1339.11 116.49 -71.15 -898.59 -472.57 41.11 -71.15 910.97 -1356.1 117.97 664.78 -5097.82 1895.57 -164.9zm-695.57 3303.69c-62.66,-565.88 -128.5,-1267.41 -198.59,-2105.56 -129.56,979.76 -211.33,1694.14 -246.37,2144.26l444.96 -38.7z"/>
   </g>
   <g>
    <path id="_3_2" class="fil0" d="M11829.8 8130.82l980.17 -85.27c319.34,-27.77 597.41,-44.03 834.2,-48.6 248.16,-4.8 447.27,5.82 597.24,32.06 164.8,28.82 310.35,73.29 436.39,133.36 142.64,68 265.89,156.9 369.49,266.69 91.56,97.03 167.65,204.12 227.81,321.25 62.63,121.95 105.85,248.13 129.21,378.45 17.52,98.44 30.79,244.35 39.59,437.95 8.77,192.9 13.24,399.97 13.24,620.68l0 1764.96c0,230.52 -6.09,433.01 -18.25,607.28 -13.35,191.2 -36.26,346.3 -68.68,465.07 -36.15,133.27 -87.82,257.09 -154.75,371.16 -73.84,125.85 -161.36,234.6 -262.25,325.92 -15.64,14.16 -31.75,27.42 -48.24,39.8 -79.57,65.97 -166.04,124.32 -259.53,175.3 -103.84,56.63 -214.18,102.98 -331.28,139.44 -1.64,0.51 -3.28,0.97 -4.92,1.47l0.28 1.26c-102.72,31.45 -228.01,58.96 -375.67,82.51 -138.58,22.1 -289.55,40.27 -452.73,54.46l-1651.32 143.65c-328.29,28.55 -594.43,-214.43 -594.43,-542.72l0 -5039.99c0,-328.29 266.14,-617.59 594.43,-646.14zm0 594.43l980.17 -85.27c631.86,-54.96 1059.82,-63.52 1282.83,-24.51 223.01,39.01 392.92,119.8 508.67,242.47 115.76,122.68 189.03,263.91 217.7,423.89 28.68,161.04 43.54,479.4 43.54,957.27l0 1764.96c0,452.39 -21.24,756.89 -63.71,912.44 -42.48,156.62 -116.82,283.09 -221.95,378.25 -106.19,95.25 -236.81,166.08 -392.92,214.71 -155.04,47.47 -389.73,84.88 -703.01,112.13l-1651.32 143.65 0 -5039.99zm1312.56 745.99l0 3319.64c185.84,-16.17 300.53,-64.38 343.01,-143.46 43.54,-80.25 64.78,-288.12 64.78,-624.76l0 -1960.35c0,-228.32 -7.43,-374.21 -21.24,-437.79 -14.87,-63.49 -46.73,-107.44 -98.76,-132.65 -50.97,-26.36 -146.55,-32.92 -287.79,-20.63z"/>
   </g>
   <polygon id="_4" class="fil1" points="5416.71,9283.14 5416.71,14323.13 4104.14,14437.31 4104.14,12321.92 3721.84,12355.18 3721.84,14470.57 2409.28,14584.75 2409.28,9544.76 3721.84,9430.58 3721.84,11233.76 4104.14,11200.5 4104.14,9397.32 "/>
   <polygon id="_5" class="fil1" points="5946.62,9237.04 8132.1,9046.92 8132.1,10053.64 7259.18,10129.58 7259.18,11091.71 8074.76,11020.76 8074.76,11976.51 7259.18,12047.46 7259.18,13156.13 8221.3,13072.43 8221.3,14079.15 5946.62,14277.03 "/>
   <path id="_6" class="fil1" d="M10854.93 8810.06l749.73 4974.77 -1339.11 116.49 -71.15 -898.59 -472.57 41.11 -71.15 910.97 -1356.1 117.97 664.78 -5097.82 1895.57 -164.9zm-695.57 3303.69c-62.66,-565.88 -128.5,-1267.41 -198.59,-2105.56 -129.56,979.76 -211.33,1694.14 -246.37,2144.26l444.96 -38.7z"/>
   <path id="_7" class="fil1" d="M11829.8 8725.25l980.17 -85.27c631.86,-54.96 1059.82,-63.52 1282.83,-24.51 223.01,39.01 392.92,119.8 508.67,242.47 115.76,122.68 189.03,263.91 217.7,423.89 28.68,161.04 43.54,479.4 43.54,957.27l0 1764.96c0,452.39 -21.24,756.89 -63.71,912.44 -42.48,156.62 -116.82,283.09 -221.95,378.25 -106.19,95.25 -236.81,166.08 -392.92,214.71 -155.04,47.47 -389.73,84.88 -703.01,112.13l-1651.32 143.65 0 -5039.99zm1312.56 745.99l0 3319.64c185.84,-16.17 300.53,-64.38 343.01,-143.46 43.54,-80.25 64.78,-288.12 64.78,-624.76l0 -1960.35c0,-228.32 -7.43,-374.21 -21.24,-437.79 -14.87,-63.49 -46.73,-107.44 -98.76,-132.65 -50.97,-26.36 -146.55,-32.92 -287.79,-20.63z"/>
   <g>
    <path class="fil0" d="M7571.92 3838.47l668.96 -646.9c218.84,-211.62 417.73,-394.79 596.96,-549.59 185.4,-160.12 336.33,-276.07 452.86,-347.7 158.49,-97.43 326.23,-158.91 503.13,-184.43 171.73,-24.76 346.55,-14.78 524.42,29.96 182.87,45.46 367.57,141.76 553.83,288.56 162.24,127.86 322.47,289.24 480.43,483.84 142.04,174.98 256.12,341.03 342.2,498.13 93.79,171.14 153.03,333.81 177.7,487.97 30.95,8.99 60.71,18.86 89.26,29.57 103.51,38.88 194.23,88.21 271.71,147.53 12.3,9.46 24.13,19.37 35.51,29.69 59.94,51.34 133.66,126.42 221.36,225.25 105.87,119.29 216.69,250.41 333.33,394.1l838.61 1033.09c206.9,254.89 182.59,647.23 -54.3,876.3 -12.74,12.32 -25.86,23.87 -39.27,34.75l-840.34 812.62c-49.04,47.42 -103.37,84.05 -160.51,110.1 -31.08,61.34 -72.16,118.13 -123.08,167.37l-947.11 915.88c-236.89,229.07 -596.66,208.15 -803.56,-46.74l-3176.4 -3913.05c-206.9,-254.89 -182.59,-647.23 54.3,-876.3zm4329.14 744.94c72.99,54.51 237.26,240.04 493.59,555.82l838.61 1033.09 -878.15 849.18 -1056.79 -1301.87c-169.99,-209.42 -290.4,-324.05 -361.87,-344.7 -70.72,-21.4 -170.49,30.93 -299.99,156.16l1433.6 1766.07 -947.11 915.88 -3176.4 -3913.05 668.96 -646.9c445.97,-431.26 762.6,-705.08 950.57,-820.62 187.98,-115.55 393.67,-145.22 617.11,-89.02 222.76,55.38 470,250.44 740.39,583.54 246.96,304.24 377.7,542.79 392.2,715.68 15.26,172.14 -72.56,368.92 -262.73,589.61 227.8,-130.51 408.44,-186 541.08,-164.14 131.96,21.03 234.72,59.99 306.93,115.27zm-2465.29 -531.46l706.77 870.67c105.74,-102.26 166.59,-189.07 183.3,-261.15 16.71,-72.09 -44.82,-195.08 -184.7,-367.39l-174.68 -215.2c-101.06,-124.49 -188.02,-186.11 -260.08,-185.59 -72.07,0.52 -162.56,54.17 -270.61,158.66z"/>
   </g>
   <path id="_1_3" class="fil1" d="M7946.55 4299.99l668.96 -646.9c445.97,-431.26 762.6,-705.08 950.57,-820.62 187.98,-115.55 393.67,-145.22 617.11,-89.02 222.76,55.38 470,250.44 740.39,583.54 246.96,304.24 377.7,542.79 392.2,715.68 15.26,172.14 -72.56,368.92 -262.73,589.61 227.8,-130.51 408.44,-186 541.08,-164.14 131.96,21.03 234.72,59.99 306.93,115.27 72.99,54.51 237.26,240.04 493.59,555.82l838.61 1033.09 -878.15 849.18 -1056.79 -1301.87c-169.99,-209.42 -290.4,-324.05 -361.87,-344.7 -70.72,-21.4 -170.49,30.93 -299.99,156.16l1433.6 1766.07 -947.11 915.88 -3176.4 -3913.05zm1489.22 -248.04l706.77 870.67c105.74,-102.26 166.59,-189.07 183.3,-261.15 16.71,-72.09 -44.82,-195.08 -184.7,-367.39l-174.68 -215.2c-101.06,-124.49 -188.02,-186.11 -260.08,-185.59 -72.07,0.52 -162.56,54.17 -270.61,158.66z"/>
   <g>
    <path class="fil2" d="M2461.61 3344.22l2165.01 -188.35c327.01,-28.44 592.11,213.59 592.11,540.6l2.32 -0.2 0 1006.72c0,221.93 -121.64,426.01 -301.88,543.8 122.63,98.22 199.93,250.31 199.93,427.2l0 955.75c0,328.29 -266.14,617.59 -594.43,646.14l-208.4 18.13 0 1520.96c0,328.29 -266.14,617.59 -594.43,646.14 -17.64,1.53 -35.08,2.24 -52.32,2.23l-1260.24 109.64c-327.01,28.44 -592.11,-213.59 -592.11,-540.6l-2.32 0.2 0 -5039.99c0,-328.29 266.14,-617.59 594.43,-646.14 17.64,-1.53 35.08,-2.24 52.33,-2.23zm-52.33 596.66l2217.34 -192.9 0 1006.72 -904.78 78.71 0 962.13 802.83 -69.84 0 955.75 -802.83 69.84 0 2115.39 -1312.56 114.19 0 -5039.99z"/>
   </g>
   <g>
    <path id="_1_4" class="fil2" d="M7670.25 3425.13l745.59 4947.3c47.44,320.31 -177.11,641.34 -501.55,717.01 -28.87,6.73 -57.56,11.26 -85.91,13.76l0 0.68 -1339.11 116.49c-112.74,9.8 -218.16,-12.42 -307.97,-59.12 -90.12,62.33 -195.43,102.55 -306.9,112.13l0 0.48 -1356.1 117.97c-328.29,28.55 -594.43,-214.43 -594.43,-542.72 0,-43.47 4.71,-86.24 13.57,-127.83l658.18 -5047.22c38.96,-302.07 294.06,-541.81 587.46,-566.97l0 -1.94 1895.57 -164.9c308.69,-26.85 562.4,186.39 591.6,484.88zm-591.6 109.55l749.73 4974.77 -1339.11 116.49 -71.15 -898.59 -472.57 41.11 -71.15 910.97 -1356.1 117.97 664.78 -5097.82 1895.57 -164.9zm-695.57 3303.69c-62.66,-565.88 -128.5,-1267.41 -198.59,-2105.56 -129.56,979.76 -211.33,1694.14 -246.37,2144.26l444.96 -38.7z"/>
   </g>
   <polygon id="_2_5" class="fil3" points="2409.28,3940.88 4626.62,3747.98 4626.62,4754.7 3721.84,4833.41 3721.84,5795.54 4524.67,5725.7 4524.67,6681.45 3721.84,6751.29 3721.84,8866.68 2409.28,8980.87 "/>
   <path id="_3_6" class="fil3" d="M7078.65 3534.68l749.73 4974.77 -1339.11 116.49 -71.15 -898.59 -472.57 41.11 -71.15 910.97 -1356.1 117.97 664.78 -5097.82 1895.57 -164.9zm-695.57 3303.69c-62.66,-565.88 -128.5,-1267.41 -198.59,-2105.56 -129.56,979.76 -211.33,1694.14 -246.37,2144.26l444.96 -38.7z"/>
   <g>
    <path class="fil2" d="M6011.14 9231.43l0 5039.99c0,328.29 -266.14,617.59 -594.43,646.14l-1312.57 114.18c-66.87,5.82 -131.15,0.36 -191.14,-14.78 -59.98,25.59 -124.28,42.22 -191.16,48.04l-1312.56 114.18c-328.29,28.55 -594.43,-214.43 -594.43,-542.72l0 -5039.99c0,-328.29 266.14,-617.59 594.43,-646.14l1312.56 -114.18c66.87,-5.82 131.15,-0.36 191.14,14.78 59.98,-25.59 124.28,-42.22 191.16,-48.04l1312.57 -114.18c328.29,-28.55 594.43,214.43 594.43,542.72zm-594.43 51.71l0 5039.99 -1312.57 114.18 0 -2115.39 -382.3 33.26 0 2115.39 -1312.56 114.18 0 -5039.99 1312.56 -114.18 0 1803.18 382.3 -33.26 0 -1803.18 1312.57 -114.18z"/>
   </g>
   <g>
    <path id="_1_7" class="fil2" d="M5946.62 8642.61l2185.48 -190.12c328.29,-28.55 594.43,214.43 594.43,542.72l0 1006.72c0,211.01 -109.96,405.89 -275.69,525.8 133.27,97.41 218.35,255.72 218.35,441.32l0 955.75c0,229.66 -130.26,440.23 -320.93,555.79 267.28,34.92 467.47,255.42 467.47,540.13l0 1006.72c0,328.29 -266.14,617.59 -594.43,646.14l-2274.68 197.88c-328.29,28.55 -594.43,-214.43 -594.43,-542.72l0 -5039.99c0,-328.29 266.14,-617.59 594.43,-646.14zm0 594.43l2185.48 -190.12 0 1006.72 -872.92 75.94 0 962.13 815.58 -70.95 0 955.75 -815.58 70.95 0 1108.67 962.12 -83.7 0 1006.72 -2274.68 197.88 0 -5039.99z"/>
   </g>
   <g>
    <path id="_2_8" class="fil2" d="M11446.53 8700.51l745.59 4947.3c47.44,320.31 -177.11,641.34 -501.55,717.01 -28.87,6.73 -57.56,11.26 -85.91,13.76l0 0.68 -1339.11 116.49c-112.74,9.8 -218.16,-12.42 -307.97,-59.12 -90.12,62.33 -195.43,102.55 -306.9,112.13l0 0.48 -1356.1 117.97c-328.29,28.55 -594.43,-214.43 -594.43,-542.72 0,-43.47 4.71,-86.24 13.57,-127.83l658.18 -5047.22c38.96,-302.07 294.06,-541.81 587.46,-566.97l0 -1.94 1895.57 -164.9c308.69,-26.85 562.4,186.39 591.6,484.88zm-591.6 109.55l749.73 4974.77 -1339.11 116.49 -71.15 -898.59 -472.57 41.11 -71.15 910.97 -1356.1 117.97 664.78 -5097.82 1895.57 -164.9zm-695.57 3303.69c-62.66,-565.88 -128.5,-1267.41 -198.59,-2105.56 -129.56,979.76 -211.33,1694.14 -246.37,2144.26l444.96 -38.7z"/>
   </g>
   <g>
    <path id="_3_9" class="fil2" d="M11829.8 8130.82l980.17 -85.27c319.34,-27.77 597.41,-44.03 834.2,-48.6 248.16,-4.8 447.27,5.82 597.24,32.06 164.8,28.82 310.35,73.29 436.39,133.36 142.64,68 265.89,156.9 369.49,266.69 91.56,97.03 167.65,204.12 227.81,321.25 62.63,121.95 105.85,248.13 129.21,378.45 17.52,98.44 30.79,244.35 39.59,437.95 8.77,192.9 13.24,399.97 13.24,620.68l0 1764.96c0,230.52 -6.09,433.01 -18.25,607.28 -13.35,191.2 -36.26,346.3 -68.68,465.07 -36.15,133.27 -87.82,257.09 -154.75,371.16 -73.84,125.85 -161.36,234.6 -262.25,325.92 -15.64,14.16 -31.75,27.42 -48.24,39.8 -79.57,65.97 -166.04,124.32 -259.53,175.3 -103.84,56.63 -214.18,102.98 -331.28,139.44 -1.64,0.51 -3.28,0.97 -4.92,1.47l0.28 1.26c-102.72,31.45 -228.01,58.96 -375.67,82.51 -138.58,22.1 -289.55,40.27 -452.73,54.46l-1651.32 143.65c-328.29,28.55 -594.43,-214.43 -594.43,-542.72l0 -5039.99c0,-328.29 266.14,-617.59 594.43,-646.14zm0 594.43l980.17 -85.27c631.86,-54.96 1059.82,-63.52 1282.83,-24.51 223.01,39.01 392.92,119.8 508.67,242.47 115.76,122.68 189.03,263.91 217.7,423.89 28.68,161.04 43.54,479.4 43.54,957.27l0 1764.96c0,452.39 -21.24,756.89 -63.71,912.44 -42.48,156.62 -116.82,283.09 -221.95,378.25 -106.19,95.25 -236.81,166.08 -392.92,214.71 -155.04,47.47 -389.73,84.88 -703.01,112.13l-1651.32 143.65 0 -5039.99zm1312.56 745.99l0 3319.64c185.84,-16.17 300.53,-64.38 343.01,-143.46 43.54,-80.25 64.78,-288.12 64.78,-624.76l0 -1960.35c0,-228.32 -7.43,-374.21 -21.24,-437.79 -14.87,-63.49 -46.73,-107.44 -98.76,-132.65 -50.97,-26.36 -146.55,-32.92 -287.79,-20.63z"/>
   </g>
   <polygon id="_4_10" class="fil3" points="5416.71,9283.14 5416.71,14323.13 4104.14,14437.31 4104.14,12321.92 3721.84,12355.18 3721.84,14470.57 2409.28,14584.75 2409.28,9544.76 3721.84,9430.58 3721.84,11233.76 4104.14,11200.5 4104.14,9397.32 "/>
   <polygon id="_5_11" class="fil3" points="5946.62,9237.04 8132.1,9046.92 8132.1,10053.64 7259.18,10129.58 7259.18,11091.71 8074.76,11020.76 8074.76,11976.51 7259.18,12047.46 7259.18,13156.13 8221.3,13072.43 8221.3,14079.15 5946.62,14277.03 "/>
   <path id="_6_12" class="fil3" d="M10854.93 8810.06l749.73 4974.77 -1339.11 116.49 -71.15 -898.59 -472.57 41.11 -71.15 910.97 -1356.1 117.97 664.78 -5097.82 1895.57 -164.9zm-695.57 3303.69c-62.66,-565.88 -128.5,-1267.41 -198.59,-2105.56 -129.56,979.76 -211.33,1694.14 -246.37,2144.26l444.96 -38.7z"/>
   <path id="_7_13" class="fil3" d="M11829.8 8725.25l980.17 -85.27c631.86,-54.96 1059.82,-63.52 1282.83,-24.51 223.01,39.01 392.92,119.8 508.67,242.47 115.76,122.68 189.03,263.91 217.7,423.89 28.68,161.04 43.54,479.4 43.54,957.27l0 1764.96c0,452.39 -21.24,756.89 -63.71,912.44 -42.48,156.62 -116.82,283.09 -221.95,378.25 -106.19,95.25 -236.81,166.08 -392.92,214.71 -155.04,47.47 -389.73,84.88 -703.01,112.13l-1651.32 143.65 0 -5039.99zm1312.56 745.99l0 3319.64c185.84,-16.17 300.53,-64.38 343.01,-143.46 43.54,-80.25 64.78,-288.12 64.78,-624.76l0 -1960.35c0,-228.32 -7.43,-374.21 -21.24,-437.79 -14.87,-63.49 -46.73,-107.44 -98.76,-132.65 -50.97,-26.36 -146.55,-32.92 -287.79,-20.63z"/>
   <g>
    <path class="fil2" d="M7571.92 3838.47l668.96 -646.9c218.84,-211.62 417.73,-394.79 596.96,-549.59 185.4,-160.12 336.33,-276.07 452.86,-347.7 158.49,-97.43 326.23,-158.91 503.13,-184.43 171.73,-24.76 346.55,-14.78 524.42,29.96 182.87,45.46 367.57,141.76 553.83,288.56 162.24,127.86 322.47,289.24 480.43,483.84 142.04,174.98 256.12,341.03 342.2,498.13 93.79,171.14 153.03,333.81 177.7,487.97 30.95,8.99 60.71,18.86 89.26,29.57 103.51,38.88 194.23,88.21 271.71,147.53 12.3,9.46 24.13,19.37 35.51,29.69 59.94,51.34 133.66,126.42 221.36,225.25 105.87,119.29 216.69,250.41 333.33,394.1l838.61 1033.09c206.9,254.89 182.59,647.23 -54.3,876.3 -12.74,12.32 -25.86,23.87 -39.27,34.75l-840.34 812.62c-49.04,47.42 -103.37,84.05 -160.51,110.1 -31.08,61.34 -72.16,118.13 -123.08,167.37l-947.11 915.88c-236.89,229.07 -596.66,208.15 -803.56,-46.74l-3176.4 -3913.05c-206.9,-254.89 -182.59,-647.23 54.3,-876.3zm4329.14 744.94c72.99,54.51 237.26,240.04 493.59,555.82l838.61 1033.09 -878.15 849.18 -1056.79 -1301.87c-169.99,-209.42 -290.4,-324.05 -361.87,-344.7 -70.72,-21.4 -170.49,30.93 -299.99,156.16l1433.6 1766.07 -947.11 915.88 -3176.4 -3913.05 668.96 -646.9c445.97,-431.26 762.6,-705.08 950.57,-820.62 187.98,-115.55 393.67,-145.22 617.11,-89.02 222.76,55.38 470,250.44 740.39,583.54 246.96,304.24 377.7,542.79 392.2,715.68 15.26,172.14 -72.56,368.92 -262.73,589.61 227.8,-130.51 408.44,-186 541.08,-164.14 131.96,21.03 234.72,59.99 306.93,115.27zm-2465.29 -531.46l706.77 870.67c105.74,-102.26 166.59,-189.07 183.3,-261.15 16.71,-72.09 -44.82,-195.08 -184.7,-367.39l-174.68 -215.2c-101.06,-124.49 -188.02,-186.11 -260.08,-185.59 -72.07,0.52 -162.56,54.17 -270.61,158.66z"/>
   </g>
   <path id="_1_14" class="fil3" d="M7946.55 4299.99l668.96 -646.9c445.97,-431.26 762.6,-705.08 950.57,-820.62 187.98,-115.55 393.67,-145.22 617.11,-89.02 222.76,55.38 470,250.44 740.39,583.54 246.96,304.24 377.7,542.79 392.2,715.68 15.26,172.14 -72.56,368.92 -262.73,589.61 227.8,-130.51 408.44,-186 541.08,-164.14 131.96,21.03 234.72,59.99 306.93,115.27 72.99,54.51 237.26,240.04 493.59,555.82l838.61 1033.09 -878.15 849.18 -1056.79 -1301.87c-169.99,-209.42 -290.4,-324.05 -361.87,-344.7 -70.72,-21.4 -170.49,30.93 -299.99,156.16l1433.6 1766.07 -947.11 915.88 -3176.4 -3913.05zm1489.22 -248.04l706.77 870.67c105.74,-102.26 166.59,-189.07 183.3,-261.15 16.71,-72.09 -44.82,-195.08 -184.7,-367.39l-174.68 -215.2c-101.06,-124.49 -188.02,-186.11 -260.08,-185.59 -72.07,0.52 -162.56,54.17 -270.61,158.66z"/>
  </g>
 </g>
</svg>
