<?xml version="1.0" encoding="UTF-8"?>
<!DOCTYPE svg PUBLIC "-//W3C//DTD SVG 1.1//EN" "http://www.w3.org/Graphics/SVG/1.1/DTD/svg11.dtd">
<!-- Creator: CorelDRAW -->
<svg xmlns="http://www.w3.org/2000/svg" xml:space="preserve" width="172.72mm" height="172.72mm" version="1.1" style="shape-rendering:geometricPrecision; text-rendering:geometricPrecision; image-rendering:optimizeQuality; fill-rule:evenodd; clip-rule:evenodd"
viewBox="0 0 17272 17272"
 xmlns:xlink="http://www.w3.org/1999/xlink"
 xmlns:xodm="http://www.corel.com/coreldraw/odm/2003">
 <defs>
  <style type="text/css">
   <![CDATA[
    .fil3 {fill:#FEFEFE}
    .fil0 {fill:#201E1E}
    .fil1 {fill:black}
    .fil2 {fill:#373435;fill-rule:nonzero}
   ]]>
  </style>
 </defs>
 <g id="Camada_x0020_1">
  <metadata id="CorelCorpID_0Corel-Layer"/>
  <g id="_1821479784400">
   <path class="fil0" d="M7922.38 2400.84l-156.57 -96.14c-29.35,-14.89 -55.91,-28.06 -84.24,-42.13 -77.14,-38.3 -205.09,-74.43 -291.28,-91.74 -54.48,-10.95 -111.21,-19.28 -166.83,-22.71l-118.46 -3.95c-66.68,0 -161.4,11.86 -229.62,19.16 -75.78,8.1 -158.19,9.55 -233.51,19.2 -52.99,6.79 -102.39,7.13 -155.13,14.67l-230.58 18.19c-25.04,1.68 -51.3,5.38 -78.4,8.47 -49.69,5.66 -105.9,6.3 -157.99,11.8 -48.62,5.14 -103.31,14.78 -154.61,15.19 -72.81,0.6 -287.1,26.16 -386.92,31.64 -24.42,1.34 -48.64,6.14 -75.01,7.92l-157.5 12.3c-21.73,2.21 -48.42,5.51 -73.92,9 -112.02,15.36 -177.45,17.8 -289.95,45.69 -24.63,6.1 -41.22,14.54 -72.71,9.59l-164.21 -5.63c-102.81,0 -207.33,13.26 -300.77,23.02l-1054.27 90.86c-26.17,2.73 -47.17,2.32 -73.29,5.68l-301.22 26.53c-21.27,0.67 -55.35,2.37 -77.3,5.62 -48.76,7.22 -100.93,8.54 -148.39,13.5 -52.35,5.47 -101.47,8.5 -153.03,12.82 -229.29,19.19 -466.69,43.21 -668.95,144.49 -71.52,35.81 -144.19,71.28 -208.62,119.13 -32.55,24.18 -63.7,44.94 -95.08,70.76l-84.89 77.01c-21.19,20.4 -43.73,36.84 -61.96,60.44l-57.06 65.36c-120.42,152.23 -168.31,238.19 -242.54,412.95 -50.13,118.01 -93.61,353.78 -93.61,482.9l0 5006.98 0 2.87c0.1,60.05 3.22,115.48 8.01,170.77 2.3,26.57 5.26,53.27 8.87,81.95 14.16,112.64 22.33,34.38 1.08,153.3 -4.42,24.79 -7.05,58.94 -9.39,81.42 -5.61,53.65 -8.48,109 -8.57,166.4l0 2.73 0 4912.21c0,289.35 41.27,485.36 151.35,705.52 11,21.99 20.11,34.87 31.51,55.37l65.89 103.9c11.3,17.13 23.76,32.39 37.23,49.65l38.76 48.11c7.61,8.22 13.9,13.58 21.84,21.59 20.66,20.88 37.83,46.04 61.81,64.56l93.07 80.66c16.69,13.02 31.68,23.61 49.67,37.21 48.58,36.74 103.34,70.52 158.27,98.4 120.96,61.39 247.04,108.75 382.13,131.2 252.19,41.9 346.87,9.88 594.5,-2.34l327.19 -28.2c68.69,-7.2 147.26,-14.78 217.81,-19.11 35.57,-2.19 71.95,-9.38 106.75,-11.71 74.16,-4.98 147.35,-8 219.87,-17.06 104.72,-13.08 214.61,-17.12 319.9,-35.49 30.17,-5.26 65.96,-16.44 103.86,-14.63l51.09 -0.16c21.09,-0.02 42.24,-0.01 63.32,0.1 30.99,0.15 84.7,-3.27 111.63,-6.84l326.55 -28.83c71.88,-0.47 148.63,-13.5 217.63,-19.3l441.94 -35.85c37.2,-1.59 71.01,-10.78 106.59,-11.87 135.87,-4.18 285.18,-22.78 414.07,-59.97l268.84 0.51c15.06,-1.18 16.41,-3.48 35.74,-3.75 44.18,-0.61 93.52,-8.47 134.51,-11.59 84.04,-6.39 192.41,-12.19 273.32,-22.84 90.45,-11.89 180.04,-11.48 270.78,-21.41 89.49,-9.79 181.67,-12.68 271.92,-24.24 84.99,-10.89 180.41,-12.68 268.5,-23.71 77.31,-9.67 193.2,-24.58 269.66,-26.49 43.25,-1.08 91.22,-10.49 134.26,-11.84 44.32,-1.39 92.12,-8.38 134.48,-11.62 93.13,-7.14 183.24,-15.61 276.15,-20.01 17.94,-0.85 46.9,-5.48 63.84,-7.24l745.44 -64.04c90.66,-6.96 182.68,-17.51 272.56,-23.6l541.48 -46.88c45.56,-4.33 83.8,-11.14 127.69,-18.41 62.33,-10.33 117.93,-23.41 176.33,-40.88 27.05,-8.09 165.35,7.59 208.95,7.59 145.49,0 268.63,-26.7 402.87,-27.53l131.86 -14.25c45.75,-6.66 88.74,-6.23 132.26,-9.89l264.77 -23.49c43.37,-2.93 88.8,-9.3 134.28,-11.83l395.72 -34.69c42.26,-5.26 90.41,-16.3 129.41,-16.68 75.56,-0.76 201.06,-7.52 271.54,-16.73 84.22,-11 183.12,-14.66 266.72,-25.48 45.1,-5.83 87.15,-4.24 132.08,-10.07 85.03,-11.02 177.67,-13.77 265.08,-23.18l400.58 -33.77c61.95,-8.16 212.46,-23.5 267.34,-24.87 58.04,-1.45 326.54,-29.5 392.13,-38.28 126.46,-16.94 254.92,-32.57 377.51,-56.86 116.89,-23.16 235.65,-49.77 350.38,-83.97 109.82,-32.73 213.9,-70.75 318.45,-115.91 201.47,-87.01 371.47,-197.61 539.87,-328.85l224.07 -206.34c49.2,-48.75 91.62,-103.47 134.72,-157.49l118.26 -169.99c45.17,-74.84 93.73,-151.8 126.52,-232.81 41.01,-101.27 65.03,-138.39 104.73,-258.56 62.98,-190.61 107.29,-401.66 120.77,-601.85 3.12,-46.39 9.68,-85.08 12.01,-134.08 3.97,-83.18 14.89,-188.6 15.92,-272.34 10.02,-811.02 3.32,-1625.07 3.79,-2436.52l-14.12 -451.82c-3.63,-23.94 -0.33,-48.92 -1.65,-73.38 -4.82,-89.35 -24.74,-263.78 -37.84,-349.14l-24.35 -133.6c-8.73,-44.21 -18.51,-82.03 -30.36,-123.64 -30.47,-107.04 -67.25,-211.59 -115.39,-311.06 -5.26,-10.87 -8.63,-16.9 -12.65,-26.84 -35.19,-86.88 -114.99,-214.53 -167.99,-294.02 -43.55,-65.33 -114.7,-158.98 -169.14,-217.82 -43.05,-46.52 -86.95,-94.45 -134.26,-138.21 -115.5,-106.83 -244.1,-199.38 -379.79,-279.64l-99.75 -54.25c-98.05,-54.92 -281.83,-116.36 -391.66,-153.27 -18.32,-6.15 -37.57,-10.75 -58.98,-16.05 -117.84,-29.15 -350.93,-78.19 -466.73,-78.19 12.1,-18.08 29.57,-29.59 44.39,-46.42 9.19,-10.44 11.02,-15.16 21.7,-25.69 93.92,-92.61 193.74,-248.84 245.91,-366.14 9.44,-21.25 20.55,-37.46 29.09,-61.73 8.69,-24.65 17.14,-45.98 26.18,-68.59 33.37,-83.44 63.4,-212 71.15,-303.98 16.09,-190.83 17.62,-331.74 -26.13,-522.97 -5.01,-21.86 -11.71,-38.29 -16.64,-58.39 -34.27,-139.7 -107.88,-284.52 -186.37,-401.99 -58.53,-87.6 -124.33,-169.6 -192.27,-249.99 -45.33,-53.63 -86.24,-110.95 -132.41,-163.74l-659.79 -813.07c-33.07,-41.05 -64.34,-82.79 -100.44,-120.7l-238.91 -274.43c-51.32,-55.2 -107.94,-118.52 -163.89,-167.8l-39.38 -35.64c-9.21,-8.88 -12.77,-9.78 -21.73,-17.76 -79.54,-70.85 -164,-131.9 -255.04,-187.22 -32.38,-19.67 -30.33,-40.86 -53.39,-92.71l-71.04 -150.09c-71.23,-142.68 -158.91,-281.69 -254.24,-409.14l-123.57 -168.64c-21.13,-27.66 -41.48,-54.48 -64.04,-82.06l-49.51 -61.06c-36.23,-40.66 -120.58,-142.84 -157.8,-177.84l-144.21 -151.94c-25.79,-25.8 -49.48,-45.53 -75.02,-71.08 -48.44,-48.46 -102.71,-92.95 -156.45,-135.76 -14.62,-11.65 -26.43,-21.46 -41.67,-33.36 -109.95,-85.84 -234.85,-167.92 -356.4,-235.9l-148.5 -72.63c-106.62,-45.89 -210.57,-86.64 -326.61,-115.65 -361.77,-90.42 -728.35,-98.02 -1090.71,3.09 -98.66,27.53 -194.59,61.62 -289.71,101.22 -117.52,48.92 -271.93,134.23 -375.1,209.31l-381.98 297.19c-72.14,58.11 -139.91,120.54 -208.99,181.94l-205.35 185.58c-18.17,16.01 -30.8,35.23 -50.37,48.34z"/>
   <g>
    <path class="fil1" d="M2461.44 3329.31l2165.02 -188.35c327.01,-28.44 592.11,213.59 592.11,540.6l2.32 -0.2 0 1006.72c0,221.93 -121.64,426.01 -301.88,543.8 122.63,98.22 199.93,250.31 199.93,427.2l0 955.76c0,328.29 -266.14,617.59 -594.43,646.14l-208.4 18.13 0 1520.97c0,328.29 -266.14,617.59 -594.43,646.14 -17.64,1.53 -35.08,2.24 -52.32,2.23l-1260.25 109.64c-327.01,28.44 -592.11,-213.59 -592.11,-540.6l-2.32 0.2 0 -5040.01c0,-328.29 266.14,-617.59 594.43,-646.14 17.64,-1.53 35.08,-2.24 52.33,-2.23zm-52.33 596.66l2217.35 -192.9 0 1006.72 -904.78 78.71 0 962.13 802.83 -69.84 0 955.76 -802.83 69.84 0 2115.4 -1312.57 114.19 0 -5040.01z"/>
   </g>
   <g>
    <path id="_1" class="fil1" d="M7665.96 3382.74l749.74 4974.79c47.44,320.31 -177.11,641.34 -501.55,717.01 -44.19,10.31 -87.95,15.49 -130.7,16.02l-1294.33 112.6c-111.88,9.73 -216.5,-12.21 -305.75,-58.37 -103,71.86 -226.04,114.78 -355.56,115.89l-1309.67 113.94c-327.01,28.44 -592.11,-213.59 -592.11,-540.6 0,-25.96 1.68,-51.66 4.92,-77.02l-0.27 -0.01 664.78 -5097.84c39.84,-308.89 305.68,-552.57 607.38,-568.32l1875.66 -163.18c297.9,-25.91 544.39,172.66 585.91,455.45l1.55 -0.36zm-587.46 137.02l749.74 4974.79 -1339.12 116.5 -71.15 -898.59 -472.57 41.11 -71.15 910.96 -1356.11 117.98 664.78 -5097.84 1895.58 -164.91zm-695.58 3303.7c-62.65,-565.88 -128.49,-1267.41 -198.58,-2105.56 -129.56,979.77 -211.33,1694.14 -246.37,2144.27l444.95 -38.71z"/>
   </g>
   <polygon id="_2" class="fil2" points="2409.11,3925.97 4626.46,3733.07 4626.46,4739.79 3721.68,4818.5 3721.68,5780.63 4524.51,5710.79 4524.51,6666.55 3721.68,6736.39 3721.68,8851.79 2409.11,8965.98 "/>
   <path id="_3" class="fil2" d="M7078.5 3519.76l749.74 4974.79 -1339.12 116.5 -71.15 -898.59 -472.57 41.11 -71.15 910.96 -1356.11 117.98 664.78 -5097.84 1895.58 -164.91zm-695.58 3303.7c-62.65,-565.88 -128.49,-1267.41 -198.58,-2105.56 -129.56,979.77 -211.33,1694.14 -246.37,2144.27l444.95 -38.71z"/>
   <g>
    <path class="fil1" d="M6010.98 9216.54l0 5040.01c0,328.29 -266.14,617.59 -594.43,646.14l-1312.57 114.18c-66.87,5.82 -131.15,0.36 -191.14,-14.78 -59.98,25.59 -124.28,42.22 -191.16,48.04l-1312.57 114.18c-328.29,28.55 -594.43,-214.43 -594.43,-542.72l0 -5040.01c0,-328.29 266.14,-617.59 594.43,-646.14l1312.57 -114.18c66.87,-5.82 131.15,-0.36 191.14,14.78 59.98,-25.59 124.28,-42.22 191.16,-48.04l1312.57 -114.18c328.29,-28.55 594.43,214.43 594.43,542.72zm-594.43 51.71l0 5040.01 -1312.57 114.18 0 -2115.4 -382.3 33.26 0 2115.4 -1312.57 114.18 0 -5040.01 1312.57 -114.18 0 1803.19 382.3 -33.26 0 -1803.19 1312.57 -114.18z"/>
   </g>
   <g>
    <path id="_1_0" class="fil1" d="M5946.47 8627.72l2185.49 -190.12c328.29,-28.55 594.43,214.43 594.43,542.72l0 1006.72c0,211.01 -109.96,405.89 -275.69,525.8 133.27,97.41 218.35,255.72 218.35,441.32l0 955.76c0,229.66 -130.26,440.22 -320.92,555.79 267.28,34.92 467.47,255.42 467.47,540.13l0 1006.73c0,328.29 -266.14,617.59 -594.43,646.14l-2274.7 197.88c-328.29,28.55 -594.43,-214.43 -594.43,-542.72l0 -5040.01c0,-328.29 266.14,-617.59 594.43,-646.14zm0 594.43l2185.49 -190.12 0 1006.72 -872.92 75.94 0 962.13 815.58 -70.95 0 955.76 -815.58 70.95 0 1108.67 962.13 -83.7 0 1006.73 -2274.7 197.88 0 -5040.01z"/>
   </g>
   <g>
    <path id="_2_1" class="fil1" d="M11446.4 8685.61l745.6 4947.32c47.44,320.31 -177.11,641.34 -501.55,717.01 -44.19,10.31 -87.95,15.49 -130.7,16.02l-1294.33 112.6c-111.88,9.73 -216.5,-12.21 -305.75,-58.37 -103,71.86 -226.04,114.78 -355.56,115.89l-1309.67 113.94c-327.01,28.44 -592.11,-213.59 -592.11,-540.6 0,-25.96 1.68,-51.66 4.92,-77.02l-0.27 -0.01 664.78 -5097.85c38.96,-302.07 294.06,-541.81 587.46,-566.97l0 -1.94 1895.58 -164.9c308.69,-26.85 562.4,186.39 591.6,484.88zm-591.6 109.55l749.74 4974.79 -1339.12 116.5 -71.15 -898.6 -472.57 41.11 -71.15 910.97 -1356.11 117.98 664.78 -5097.85 1895.58 -164.9zm-695.58 3303.7c-62.65,-565.88 -128.49,-1267.41 -198.58,-2105.56 -129.56,979.77 -211.33,1694.14 -246.37,2144.27l444.95 -38.71z"/>
   </g>
   <g>
    <path id="_3_2" class="fil1" d="M11829.67 8115.93l980.18 -85.27 0 2.32c342.14,-29.77 620.33,-46.8 834.21,-50.93 248.16,-4.8 447.26,5.82 597.23,32.06 164.8,28.81 310.34,73.27 436.39,133.36 142.64,67.98 265.91,156.9 369.5,266.69 91.57,97.04 167.64,204.13 227.81,321.26 62.62,121.94 105.87,248.13 129.21,378.45 17.52,98.47 30.79,244.38 39.59,438.02 8.77,192.89 13.24,399.93 13.24,620.62l0 1764.96c0,502.26 -28.98,860.12 -86.94,1072.36 -36.15,133.27 -87.82,257.09 -154.75,371.16 -73.85,125.86 -161.37,234.6 -262.25,325.91 -15.64,14.16 -31.75,27.42 -48.24,39.8 -79.57,65.97 -166.04,124.32 -259.53,175.3 -103.82,56.64 -214.16,102.98 -331.28,139.45 -1.64,0.51 -3.28,0.97 -4.92,1.47l0.28 1.26c-102.71,31.45 -228,58.96 -375.64,82.5 -138.59,22.1 -289.57,40.27 -452.76,54.46l0 -2.32 -1651.33 143.66c-327.01,28.44 -592.11,-213.59 -592.11,-540.6l-2.32 0.2 0 -5040.01c0,-328.29 266.14,-617.59 594.43,-646.14zm2969.21 4785.7c-42.48,156.61 -116.81,283.08 -221.95,378.24 -106.19,95.25 -236.81,166.09 -392.92,214.72 -155.04,47.47 -389.73,84.87 -703.01,112.12l-1651.33 143.66 0 -5040.01 980.18 -85.27c631.86,-54.97 1059.83,-63.53 1282.83,-24.52 223.01,39 392.93,119.8 508.68,242.47 115.75,122.68 189.03,263.92 217.7,423.9 28.67,161.05 43.54,479.4 43.54,957.28l0 1764.96c0,452.39 -21.24,756.89 -63.72,912.45zm-1656.64 -3445.28l0 3319.65c185.84,-16.16 300.53,-64.37 343.01,-143.47 43.54,-80.24 64.78,-288.11 64.78,-624.74l0 -1960.36c0,-228.32 -7.44,-374.22 -21.24,-437.8 -14.87,-63.49 -46.73,-107.45 -98.76,-132.65 -50.98,-26.37 -146.55,-32.91 -287.79,-20.63z"/>
   </g>
   <polygon id="_4" class="fil2" points="5416.55,9268.25 5416.55,14308.26 4103.98,14422.44 4103.98,12307.04 3721.68,12340.3 3721.68,14455.7 2409.11,14569.88 2409.11,9529.87 3721.68,9415.69 3721.68,11218.88 4103.98,11185.62 4103.98,9382.43 "/>
   <polygon id="_5" class="fil2" points="5946.47,9222.15 8131.96,9032.03 8131.96,10038.75 7259.04,10114.69 7259.04,11076.82 8074.62,11005.87 8074.62,11961.63 7259.04,12032.58 7259.04,13141.25 8221.17,13057.55 8221.17,14064.28 5946.47,14262.16 "/>
   <path id="_6" class="fil2" d="M10854.8 8795.16l749.74 4974.79 -1339.12 116.5 -71.15 -898.6 -472.57 41.11 -71.15 910.97 -1356.11 117.98 664.78 -5097.85 1895.58 -164.9zm-695.58 3303.7c-62.65,-565.88 -128.49,-1267.41 -198.58,-2105.56 -129.56,979.77 -211.33,1694.14 -246.37,2144.27l444.95 -38.71z"/>
   <path id="_7" class="fil2" d="M11829.67 8710.36l980.18 -85.27c631.86,-54.97 1059.83,-63.53 1282.83,-24.52 223.01,39 392.93,119.8 508.68,242.47 115.75,122.68 189.03,263.92 217.7,423.9 28.67,161.05 43.54,479.4 43.54,957.28l0 1764.96c0,452.39 -21.24,756.89 -63.72,912.45 -42.48,156.61 -116.81,283.08 -221.95,378.24 -106.19,95.25 -236.81,166.09 -392.92,214.72 -155.04,47.47 -389.73,84.87 -703.01,112.12l-1651.33 143.66 0 -5040.01zm1312.57 745.99l0 3319.65c185.84,-16.16 300.53,-64.37 343.01,-143.47 43.54,-80.24 64.78,-288.11 64.78,-624.74l0 -1960.36c0,-228.32 -7.44,-374.22 -21.24,-437.8 -14.87,-63.49 -46.73,-107.45 -98.76,-132.65 -50.98,-26.37 -146.55,-32.91 -287.79,-20.63z"/>
   <g>
    <path class="fil1" d="M7571.76 3823.56l668.96 -646.9c218.85,-211.64 417.74,-394.81 596.96,-549.59 185.42,-160.13 336.34,-276.08 452.87,-347.71 317.79,-195.35 660.32,-246.84 1027.54,-154.46 182.87,45.46 367.58,141.76 553.84,288.55 162.25,127.88 322.47,289.25 480.43,483.84 11.85,14.6 22.9,29.66 33.24,45.11 130.62,164.5 233.61,315.52 308.97,453.02 93.78,171.15 153.02,333.82 177.68,487.97 30.96,9 60.72,18.86 89.27,29.58 103.47,38.87 194.19,88.2 271.72,147.52 12.37,9.51 24.26,19.48 35.7,29.86 59.91,51.36 133.58,126.38 221.17,225.09 105.85,119.27 216.7,250.4 333.34,394.1l838.6 1033.09c206.9,254.89 182.59,647.23 -54.3,876.3l-878.15 849.19c-49.97,48.32 -105.41,85.47 -163.72,111.69 -30.87,60.03 -71.35,115.64 -121.33,163.97l-947.12 915.89c-236.89,229.07 -596.66,208.15 -803.56,-46.74l-3176.41 -3913.07c-206.9,-254.89 -182.59,-647.23 54.3,-876.3zm374.63 461.52l668.96 -646.9c445.98,-431.27 762.61,-705.09 950.58,-820.63 187.97,-115.55 393.67,-145.22 617.1,-89.01 222.77,55.38 470.01,250.43 740.4,583.53 246.97,304.24 377.7,542.8 392.2,715.69 15.27,172.14 -72.56,368.93 -262.72,589.61 227.79,-130.52 408.44,-186 541.08,-164.15 131.96,21.04 234.72,60.01 306.93,115.27 72.98,54.52 237.26,240.04 493.6,555.83l838.6 1033.09 -878.15 849.19 -1056.79 -1301.88c-170,-209.42 -290.4,-324.05 -361.88,-344.7 -70.72,-21.39 -170.49,30.93 -299.99,156.16l1433.61 1766.08 -947.12 915.89 -3176.41 -3913.07zm2379.3 361.48c16.71,-72.09 -44.82,-195.07 -184.7,-367.4l-174.68 -215.19c-101.06,-124.5 -188.02,-186.12 -260.08,-185.59 -72.07,0.52 -162.57,54.17 -270.61,158.65l706.76 870.67c105.75,-102.26 166.6,-189.05 183.31,-261.14z"/>
   </g>
   <path id="_1_3" class="fil2" d="M7946.39 4285.08l668.96 -646.9c445.98,-431.27 762.61,-705.09 950.58,-820.63 187.97,-115.55 393.67,-145.22 617.1,-89.01 222.77,55.38 470.01,250.43 740.4,583.53 246.97,304.24 377.7,542.8 392.2,715.69 15.27,172.14 -72.56,368.93 -262.72,589.61 227.79,-130.52 408.44,-186 541.08,-164.15 131.96,21.04 234.72,60.01 306.93,115.27 72.98,54.52 237.26,240.04 493.6,555.83l838.6 1033.09 -878.15 849.19 -1056.79 -1301.88c-170,-209.42 -290.4,-324.05 -361.88,-344.7 -70.72,-21.39 -170.49,30.93 -299.99,156.16l1433.61 1766.08 -947.12 915.89 -3176.41 -3913.07zm1489.23 -248.05l706.76 870.67c105.75,-102.26 166.6,-189.05 183.31,-261.14 16.71,-72.09 -44.82,-195.07 -184.7,-367.4l-174.68 -215.19c-101.06,-124.5 -188.02,-186.12 -260.08,-185.59 -72.07,0.52 -162.57,54.17 -270.61,158.65z"/>
   <g>
    <path class="fil3" d="M2461.44 3329.31l2165.02 -188.35c327.01,-28.44 592.11,213.59 592.11,540.6l2.32 -0.2 0 1006.72c0,221.93 -121.64,426.01 -301.88,543.8 122.63,98.22 199.93,250.31 199.93,427.2l0 955.76c0,328.29 -266.14,617.59 -594.43,646.14l-208.4 18.13 0 1520.97c0,328.29 -266.14,617.59 -594.43,646.14 -17.64,1.53 -35.08,2.24 -52.32,2.23l-1260.25 109.64c-327.01,28.44 -592.11,-213.59 -592.11,-540.6l-2.32 0.2 0 -5040.01c0,-328.29 266.14,-617.59 594.43,-646.14 17.64,-1.53 35.08,-2.24 52.33,-2.23zm-52.33 596.66l2217.35 -192.9 0 1006.72 -904.78 78.71 0 962.13 802.83 -69.84 0 955.76 -802.83 69.84 0 2115.4 -1312.57 114.19 0 -5040.01z"/>
   </g>
   <g>
    <path id="_1_4" class="fil3" d="M7665.96 3382.74l749.74 4974.79c47.44,320.31 -177.11,641.34 -501.55,717.01 -44.19,10.31 -87.95,15.49 -130.7,16.02l-1294.33 112.6c-111.88,9.73 -216.5,-12.21 -305.75,-58.37 -103,71.86 -226.04,114.78 -355.56,115.89l-1309.67 113.94c-327.01,28.44 -592.11,-213.59 -592.11,-540.6 0,-25.96 1.68,-51.66 4.92,-77.02l-0.27 -0.01 664.78 -5097.84c39.84,-308.89 305.68,-552.57 607.38,-568.32l1875.66 -163.18c297.9,-25.91 544.39,172.66 585.91,455.45l1.55 -0.36zm-587.46 137.02l749.74 4974.79 -1339.12 116.5 -71.15 -898.59 -472.57 41.11 -71.15 910.96 -1356.11 117.98 664.78 -5097.84 1895.58 -164.91zm-695.58 3303.7c-62.65,-565.88 -128.49,-1267.41 -198.58,-2105.56 -129.56,979.77 -211.33,1694.14 -246.37,2144.27l444.95 -38.71z"/>
   </g>
   <polygon id="_2_5" class="fil2" points="2409.11,3925.97 4626.46,3733.07 4626.46,4739.79 3721.68,4818.5 3721.68,5780.63 4524.51,5710.79 4524.51,6666.55 3721.68,6736.39 3721.68,8851.79 2409.11,8965.98 "/>
   <path id="_3_6" class="fil2" d="M7078.5 3519.76l749.74 4974.79 -1339.12 116.5 -71.15 -898.59 -472.57 41.11 -71.15 910.96 -1356.11 117.98 664.78 -5097.84 1895.58 -164.91zm-695.58 3303.7c-62.65,-565.88 -128.49,-1267.41 -198.58,-2105.56 -129.56,979.77 -211.33,1694.14 -246.37,2144.27l444.95 -38.71z"/>
   <g>
    <path class="fil3" d="M6010.98 9216.54l0 5040.01c0,328.29 -266.14,617.59 -594.43,646.14l-1312.57 114.18c-66.87,5.82 -131.15,0.36 -191.14,-14.78 -59.98,25.59 -124.28,42.22 -191.16,48.04l-1312.57 114.18c-328.29,28.55 -594.43,-214.43 -594.43,-542.72l0 -5040.01c0,-328.29 266.14,-617.59 594.43,-646.14l1312.57 -114.18c66.87,-5.82 131.15,-0.36 191.14,14.78 59.98,-25.59 124.28,-42.22 191.16,-48.04l1312.57 -114.18c328.29,-28.55 594.43,214.43 594.43,542.72zm-594.43 51.71l0 5040.01 -1312.57 114.18 0 -2115.4 -382.3 33.26 0 2115.4 -1312.57 114.18 0 -5040.01 1312.57 -114.18 0 1803.19 382.3 -33.26 0 -1803.19 1312.57 -114.18z"/>
   </g>
   <g>
    <path id="_1_7" class="fil3" d="M5946.47 8627.72l2185.49 -190.12c328.29,-28.55 594.43,214.43 594.43,542.72l0 1006.72c0,211.01 -109.96,405.89 -275.69,525.8 133.27,97.41 218.35,255.72 218.35,441.32l0 955.76c0,229.66 -130.26,440.22 -320.92,555.79 267.28,34.92 467.47,255.42 467.47,540.13l0 1006.73c0,328.29 -266.14,617.59 -594.43,646.14l-2274.7 197.88c-328.29,28.55 -594.43,-214.43 -594.43,-542.72l0 -5040.01c0,-328.29 266.14,-617.59 594.43,-646.14zm0 594.43l2185.49 -190.12 0 1006.72 -872.92 75.94 0 962.13 815.58 -70.95 0 955.76 -815.58 70.95 0 1108.67 962.13 -83.7 0 1006.73 -2274.7 197.88 0 -5040.01z"/>
   </g>
   <g>
    <path id="_2_8" class="fil3" d="M11446.4 8685.61l745.6 4947.32c47.44,320.31 -177.11,641.34 -501.55,717.01 -44.19,10.31 -87.95,15.49 -130.7,16.02l-1294.33 112.6c-111.88,9.73 -216.5,-12.21 -305.75,-58.37 -103,71.86 -226.04,114.78 -355.56,115.89l-1309.67 113.94c-327.01,28.44 -592.11,-213.59 -592.11,-540.6 0,-25.96 1.68,-51.66 4.92,-77.02l-0.27 -0.01 664.78 -5097.85c38.96,-302.07 294.06,-541.81 587.46,-566.97l0 -1.94 1895.58 -164.9c308.69,-26.85 562.4,186.39 591.6,484.88zm-591.6 109.55l749.74 4974.79 -1339.12 116.5 -71.15 -898.6 -472.57 41.11 -71.15 910.97 -1356.11 117.98 664.78 -5097.85 1895.58 -164.9zm-695.58 3303.7c-62.65,-565.88 -128.49,-1267.41 -198.58,-2105.56 -129.56,979.77 -211.33,1694.14 -246.37,2144.27l444.95 -38.71z"/>
   </g>
   <g>
    <path id="_3_9" class="fil3" d="M11829.67 8115.93l980.18 -85.27 0 2.32c342.14,-29.77 620.33,-46.8 834.21,-50.93 248.16,-4.8 447.26,5.82 597.23,32.06 164.8,28.81 310.34,73.27 436.39,133.36 142.64,67.98 265.91,156.9 369.5,266.69 91.57,97.04 167.64,204.13 227.81,321.26 62.62,121.94 105.87,248.13 129.21,378.45 17.52,98.47 30.79,244.38 39.59,438.02 8.77,192.89 13.24,399.93 13.24,620.62l0 1764.96c0,502.26 -28.98,860.12 -86.94,1072.36 -36.15,133.27 -87.82,257.09 -154.75,371.16 -73.85,125.86 -161.37,234.6 -262.25,325.91 -15.64,14.16 -31.75,27.42 -48.24,39.8 -79.57,65.97 -166.04,124.32 -259.53,175.3 -103.82,56.64 -214.16,102.98 -331.28,139.45 -1.64,0.51 -3.28,0.97 -4.92,1.47l0.28 1.26c-102.71,31.45 -228,58.96 -375.64,82.5 -138.59,22.1 -289.57,40.27 -452.76,54.46l0 -2.32 -1651.33 143.66c-327.01,28.44 -592.11,-213.59 -592.11,-540.6l-2.32 0.2 0 -5040.01c0,-328.29 266.14,-617.59 594.43,-646.14zm2969.21 4785.7c-42.48,156.61 -116.81,283.08 -221.95,378.24 -106.19,95.25 -236.81,166.09 -392.92,214.72 -155.04,47.47 -389.73,84.87 -703.01,112.12l-1651.33 143.66 0 -5040.01 980.18 -85.27c631.86,-54.97 1059.83,-63.53 1282.83,-24.52 223.01,39 392.93,119.8 508.68,242.47 115.75,122.68 189.03,263.92 217.7,423.9 28.67,161.05 43.54,479.4 43.54,957.28l0 1764.96c0,452.39 -21.24,756.89 -63.72,912.45zm-1656.64 -3445.28l0 3319.65c185.84,-16.16 300.53,-64.37 343.01,-143.47 43.54,-80.24 64.78,-288.11 64.78,-624.74l0 -1960.36c0,-228.32 -7.44,-374.22 -21.24,-437.8 -14.87,-63.49 -46.73,-107.45 -98.76,-132.65 -50.98,-26.37 -146.55,-32.91 -287.79,-20.63z"/>
   </g>
   <polygon id="_4_10" class="fil2" points="5416.55,9268.25 5416.55,14308.26 4103.98,14422.44 4103.98,12307.04 3721.68,12340.3 3721.68,14455.7 2409.11,14569.88 2409.11,9529.87 3721.68,9415.69 3721.68,11218.88 4103.98,11185.62 4103.98,9382.43 "/>
   <polygon id="_5_11" class="fil2" points="5946.47,9222.15 8131.96,9032.03 8131.96,10038.75 7259.04,10114.69 7259.04,11076.82 8074.62,11005.87 8074.62,11961.63 7259.04,12032.58 7259.04,13141.25 8221.17,13057.55 8221.17,14064.28 5946.47,14262.16 "/>
   <path id="_6_12" class="fil2" d="M10854.8 8795.16l749.74 4974.79 -1339.12 116.5 -71.15 -898.6 -472.57 41.11 -71.15 910.97 -1356.11 117.98 664.78 -5097.85 1895.58 -164.9zm-695.58 3303.7c-62.65,-565.88 -128.49,-1267.41 -198.58,-2105.56 -129.56,979.77 -211.33,1694.14 -246.37,2144.27l444.95 -38.71z"/>
   <path id="_7_13" class="fil2" d="M11829.67 8710.36l980.18 -85.27c631.86,-54.97 1059.83,-63.53 1282.83,-24.52 223.01,39 392.93,119.8 508.68,242.47 115.75,122.68 189.03,263.92 217.7,423.9 28.67,161.05 43.54,479.4 43.54,957.28l0 1764.96c0,452.39 -21.24,756.89 -63.72,912.45 -42.48,156.61 -116.81,283.08 -221.95,378.24 -106.19,95.25 -236.81,166.09 -392.92,214.72 -155.04,47.47 -389.73,84.87 -703.01,112.12l-1651.33 143.66 0 -5040.01zm1312.57 745.99l0 3319.65c185.84,-16.16 300.53,-64.37 343.01,-143.47 43.54,-80.24 64.78,-288.11 64.78,-624.74l0 -1960.36c0,-228.32 -7.44,-374.22 -21.24,-437.8 -14.87,-63.49 -46.73,-107.45 -98.76,-132.65 -50.98,-26.37 -146.55,-32.91 -287.79,-20.63z"/>
   <g>
    <path class="fil3" d="M7571.76 3823.56l668.96 -646.9c218.85,-211.64 417.74,-394.81 596.96,-549.59 185.42,-160.13 336.34,-276.08 452.87,-347.71 317.79,-195.35 660.32,-246.84 1027.54,-154.46 182.87,45.46 367.58,141.76 553.84,288.55 162.25,127.88 322.47,289.25 480.43,483.84 11.85,14.6 22.9,29.66 33.24,45.11 130.62,164.5 233.61,315.52 308.97,453.02 93.78,171.15 153.02,333.82 177.68,487.97 30.96,9 60.72,18.86 89.27,29.58 103.47,38.87 194.19,88.2 271.72,147.52 12.37,9.51 24.26,19.48 35.7,29.86 59.91,51.36 133.58,126.38 221.17,225.09 105.85,119.27 216.7,250.4 333.34,394.1l838.6 1033.09c206.9,254.89 182.59,647.23 -54.3,876.3l-878.15 849.19c-49.97,48.32 -105.41,85.47 -163.72,111.69 -30.87,60.03 -71.35,115.64 -121.33,163.97l-947.12 915.89c-236.89,229.07 -596.66,208.15 -803.56,-46.74l-3176.41 -3913.07c-206.9,-254.89 -182.59,-647.23 54.3,-876.3zm374.63 461.52l668.96 -646.9c445.98,-431.27 762.61,-705.09 950.58,-820.63 187.97,-115.55 393.67,-145.22 617.1,-89.01 222.77,55.38 470.01,250.43 740.4,583.53 246.97,304.24 377.7,542.8 392.2,715.69 15.27,172.14 -72.56,368.93 -262.72,589.61 227.79,-130.52 408.44,-186 541.08,-164.15 131.96,21.04 234.72,60.01 306.93,115.27 72.98,54.52 237.26,240.04 493.6,555.83l838.6 1033.09 -878.15 849.19 -1056.79 -1301.88c-170,-209.42 -290.4,-324.05 -361.88,-344.7 -70.72,-21.39 -170.49,30.93 -299.99,156.16l1433.61 1766.08 -947.12 915.89 -3176.41 -3913.07zm2379.3 361.48c16.71,-72.09 -44.82,-195.07 -184.7,-367.4l-174.68 -215.19c-101.06,-124.5 -188.02,-186.12 -260.08,-185.59 -72.07,0.52 -162.57,54.17 -270.61,158.65l706.76 870.67c105.75,-102.26 166.6,-189.05 183.31,-261.14z"/>
   </g>
   <path id="_1_14" class="fil2" d="M7946.39 4285.08l668.96 -646.9c445.98,-431.27 762.61,-705.09 950.58,-820.63 187.97,-115.55 393.67,-145.22 617.1,-89.01 222.77,55.38 470.01,250.43 740.4,583.53 246.97,304.24 377.7,542.8 392.2,715.69 15.27,172.14 -72.56,368.93 -262.72,589.61 227.79,-130.52 408.44,-186 541.08,-164.15 131.96,21.04 234.72,60.01 306.93,115.27 72.98,54.52 237.26,240.04 493.6,555.83l838.6 1033.09 -878.15 849.19 -1056.79 -1301.88c-170,-209.42 -290.4,-324.05 -361.88,-344.7 -70.72,-21.39 -170.49,30.93 -299.99,156.16l1433.61 1766.08 -947.12 915.89 -3176.41 -3913.07zm1489.23 -248.05l706.76 870.67c105.75,-102.26 166.6,-189.05 183.31,-261.14 16.71,-72.09 -44.82,-195.07 -184.7,-367.4l-174.68 -215.19c-101.06,-124.5 -188.02,-186.12 -260.08,-185.59 -72.07,0.52 -162.57,54.17 -270.61,158.65z"/>
  </g>
 </g>
</svg>
